<?xml version="1.0" encoding="UTF-8" standalone="no"?>
<!-- Generator: Adobe Illustrator 19.0.0, SVG Export Plug-In . SVG Version: 6.00 Build 0)  -->

<svg
   xmlns:dc="http://purl.org/dc/elements/1.1/"
   xmlns:cc="http://creativecommons.org/ns#"
   xmlns:rdf="http://www.w3.org/1999/02/22-rdf-syntax-ns#"
   xmlns:svg="http://www.w3.org/2000/svg"
   xmlns="http://www.w3.org/2000/svg"
   xmlns:sodipodi="http://sodipodi.sourceforge.net/DTD/sodipodi-0.dtd"
   xmlns:inkscape="http://www.inkscape.org/namespaces/inkscape"
   version="1.1"
   id="Capa_1"
   x="0px"
   y="0px"
   viewBox="0 0 201.387 201.387"
   style="enable-background:new 0 0 201.387 201.387;"
   xml:space="preserve"
   sodipodi:docname="swags.svg"
   inkscape:version="0.92.3 (2405546, 2018-03-11)"><metadata
   id="metadata69"><rdf:RDF><cc:Work
       rdf:about=""><dc:format>image/svg+xml</dc:format><dc:type
         rdf:resource="http://purl.org/dc/dcmitype/StillImage" /><dc:title /></cc:Work></rdf:RDF></metadata><defs
   id="defs67" /><sodipodi:namedview
   pagecolor="#ffffff"
   bordercolor="#666666"
   borderopacity="1"
   objecttolerance="10"
   gridtolerance="10"
   guidetolerance="10"
   inkscape:pageopacity="0"
   inkscape:pageshadow="2"
   inkscape:window-width="1366"
   inkscape:window-height="704"
   id="namedview65"
   showgrid="false"
   inkscape:pagecheckerboard="true"
   inkscape:zoom="2.3437462"
   inkscape:cx="142.34064"
   inkscape:cy="135.2239"
   inkscape:window-x="0"
   inkscape:window-y="27"
   inkscape:window-maximized="1"
   inkscape:current-layer="Capa_1" />



<rect
   x="105.81"
   y="27.291"
   transform="matrix(-0.9737 -0.2277 0.2277 -0.9737 243.954 133.9249)"
   style="fill:#ffffff"
   width="47.785"
   height="51.198"
   id="rect8" />

<rect
   x="42.327"
   y="16.943"
   transform="matrix(-0.9931 0.1174 -0.1174 -0.9931 147.2561 86.8071)"
   style="fill:#ffffff"
   width="57.488"
   height="61.595"
   id="rect12" />



<path
   style="fill:#ececec;stroke-width:1.0000149"
   d="m 119.40625,36.177734 -54.992188,13.22461 5.253907,21.851562 h 58.171871 z m 8.43359,35.076172 H 69.667969 Z"
   id="rect16"
   inkscape:connector-curvature="0"
   sodipodi:nodetypes="cccccccc" /><path
   style="fill:#ffffff"
   d="M 25.597656,64.853516 18.771484,197.97266 H 182.61133 L 175.78516,64.853516 Z m 49.494141,13.652343 c 3.770564,-6.21e-4 6.827668,3.055608 6.828125,6.826172 -0.003,2.436289 -1.304056,4.686354 -3.414063,5.904297 v 16.283202 c 0,12.233 9.951543,22.1875 22.185551,22.1875 12.234,0 22.1875,-9.9535 22.1875,-22.1875 3.98553,-8.012984 -3.33327,-18.358375 -3.41407,-22.187499 4.6e-4,-3.770566 3.05756,-6.826796 6.82813,-6.826172 3.7698,4.58e-4 6.82571,3.056371 6.82617,6.826172 -4.2872,8.020395 -3.41406,12.131121 -3.41406,22.187499 0,15.998 -13.01567,29.01367 -29.01367,29.01367 -15.998008,0 -29.011723,-13.01567 -29.011722,-29.01367 V 91.238281 c -2.11061,-1.218292 -3.411767,-3.469263 -3.414063,-5.90625 4.57e-4,-3.769801 3.056371,-6.825715 6.826172,-6.826172 z m -3.412109,12.732422 c -47.786459,73.432479 -23.893229,36.716239 0,0 z"
   id="polygon20"
   inkscape:connector-curvature="0"
   sodipodi:nodetypes="ccccccccsscccccssccccc" />






<g
   id="g34"
   style="fill:#ffffff">
</g>
<g
   id="g36"
   style="fill:#ffffff">
</g>
<g
   id="g38"
   style="fill:#ffffff">
</g>
<g
   id="g40"
   style="fill:#ffffff">
</g>
<g
   id="g42"
   style="fill:#ffffff">
</g>
<g
   id="g44"
   style="fill:#ffffff">
</g>
<g
   id="g46"
   style="fill:#ffffff">
</g>
<g
   id="g48"
   style="fill:#ffffff">
</g>
<g
   id="g50"
   style="fill:#ffffff">
</g>
<g
   id="g52"
   style="fill:#ffffff">
</g>
<g
   id="g54"
   style="fill:#ffffff">
</g>
<g
   id="g56"
   style="fill:#ffffff">
</g>
<g
   id="g58"
   style="fill:#ffffff">
</g>
<g
   id="g60"
   style="fill:#ffffff">
</g>
<g
   id="g62"
   style="fill:#ffffff">
</g>
</svg>