<svg xmlns="http://www.w3.org/2000/svg" xmlns:svg="http://www.w3.org/2000/svg" id="Capa_1" x="0" y="0" enable-background="new 0 0 201.387 201.387" version="1.1" viewBox="0 0 201.387 201.387" xml:space="preserve"><metadata id="metadata69"/><rect id="rect8" width="47.785" height="51.198" x="105.81" y="27.291" fill="#fff" transform="matrix(-0.9737 -0.2277 0.2277 -0.9737 243.954 133.9249)"/><rect id="rect12" width="57.488" height="61.595" x="42.327" y="16.943" fill="#fff" transform="matrix(-0.9931 0.1174 -0.1174 -0.9931 147.2561 86.8071)"/><path id="rect16" fill="#ececec" stroke-width="1" d="m 119.40625,36.177734 -54.992188,13.22461 5.253907,21.851562 h 58.171871 z m 8.43359,35.076172 H 69.667969 Z"/><path id="polygon20" fill="#fff" d="M 25.597656,64.853516 18.771484,197.97266 H 182.61133 L 175.78516,64.853516 Z m 49.494141,13.652343 c 3.770564,-6.21e-4 6.827668,3.055608 6.828125,6.826172 -0.003,2.436289 -1.304056,4.686354 -3.414063,5.904297 v 16.283202 c 0,12.233 9.951543,22.1875 22.185551,22.1875 12.234,0 22.1875,-9.9535 22.1875,-22.1875 3.98553,-8.012984 -3.33327,-18.358375 -3.41407,-22.187499 4.6e-4,-3.770566 3.05756,-6.826796 6.82813,-6.826172 3.7698,4.58e-4 6.82571,3.056371 6.82617,6.826172 -4.2872,8.020395 -3.41406,12.131121 -3.41406,22.187499 0,15.998 -13.01567,29.01367 -29.01367,29.01367 -15.998008,0 -29.011723,-13.01567 -29.011722,-29.01367 V 91.238281 c -2.11061,-1.218292 -3.411767,-3.469263 -3.414063,-5.90625 4.57e-4,-3.769801 3.056371,-6.825715 6.826172,-6.826172 z m -3.412109,12.732422 c -47.786459,73.432479 -23.893229,36.716239 0,0 z"/></svg>